<mxfile host="app.diagrams.net" modified="2023-09-19T08:29:14.912Z" agent="Mozilla/5.0 (Windows NT 10.0; Win64; x64) AppleWebKit/537.36 (KHTML, like Gecko) Chrome/116.0.0.0 Safari/537.36 OPR/102.0.0.0" etag="E9vYsc_4aDz0gSlMYcQM" version="21.7.5" type="github" pages="2">
  <diagram name="Berjalan" id="e7e014a7-5840-1c2e-5031-d8a46d1fe8dd">
    <mxGraphModel dx="1060" dy="561" grid="1" gridSize="10" guides="1" tooltips="1" connect="1" arrows="1" fold="1" page="1" pageScale="1" pageWidth="1169" pageHeight="826" background="none" math="0" shadow="0">
      <root>
        <mxCell id="0" />
        <mxCell id="1" parent="0" />
        <mxCell id="pQh984amjkJI4nYFNe4P-45" value="Pemesan" style="swimlane;html=1;startSize=20;" vertex="1" parent="1">
          <mxGeometry x="40" y="40" width="240" height="680" as="geometry" />
        </mxCell>
        <mxCell id="pQh984amjkJI4nYFNe4P-63" value="" style="ellipse;html=1;shape=startState;fillColor=#000000;strokeColor=#000000;" vertex="1" parent="pQh984amjkJI4nYFNe4P-45">
          <mxGeometry x="105" y="30" width="30" height="30" as="geometry" />
        </mxCell>
        <mxCell id="pQh984amjkJI4nYFNe4P-66" value="Mengisi Formulir" style="rounded=1;whiteSpace=wrap;html=1;fontSize=10;" vertex="1" parent="pQh984amjkJI4nYFNe4P-45">
          <mxGeometry x="80" y="160" width="80" height="40" as="geometry" />
        </mxCell>
        <mxCell id="pQh984amjkJI4nYFNe4P-72" value="Pembayaran Uang Muka" style="rounded=1;whiteSpace=wrap;html=1;fontSize=10;" vertex="1" parent="pQh984amjkJI4nYFNe4P-45">
          <mxGeometry x="80" y="380" width="80" height="40" as="geometry" />
        </mxCell>
        <mxCell id="pQh984amjkJI4nYFNe4P-85" style="edgeStyle=orthogonalEdgeStyle;rounded=0;orthogonalLoop=1;jettySize=auto;html=1;exitX=0.5;exitY=1;exitDx=0;exitDy=0;entryX=0.5;entryY=0;entryDx=0;entryDy=0;" edge="1" parent="pQh984amjkJI4nYFNe4P-45" source="pQh984amjkJI4nYFNe4P-75" target="pQh984amjkJI4nYFNe4P-76">
          <mxGeometry relative="1" as="geometry" />
        </mxCell>
        <mxCell id="pQh984amjkJI4nYFNe4P-75" value="Menerima Bukti Transaksi" style="rounded=1;whiteSpace=wrap;html=1;fontSize=10;" vertex="1" parent="pQh984amjkJI4nYFNe4P-45">
          <mxGeometry x="80" y="580" width="80" height="40" as="geometry" />
        </mxCell>
        <mxCell id="pQh984amjkJI4nYFNe4P-76" value="" style="ellipse;html=1;shape=endState;fillColor=#000000;strokeColor=#000000;" vertex="1" parent="pQh984amjkJI4nYFNe4P-45">
          <mxGeometry x="105" y="640" width="30" height="30" as="geometry" />
        </mxCell>
        <mxCell id="pQh984amjkJI4nYFNe4P-86" value="" style="edgeStyle=orthogonalEdgeStyle;html=1;verticalAlign=bottom;endArrow=classic;endSize=8;strokeColor=#000000;rounded=0;endFill=1;" edge="1" parent="pQh984amjkJI4nYFNe4P-45" source="pQh984amjkJI4nYFNe4P-63" target="pQh984amjkJI4nYFNe4P-65">
          <mxGeometry relative="1" as="geometry">
            <mxPoint x="160" y="160" as="targetPoint" />
            <mxPoint x="160" y="100" as="sourcePoint" />
          </mxGeometry>
        </mxCell>
        <mxCell id="pQh984amjkJI4nYFNe4P-87" value="" style="edgeStyle=orthogonalEdgeStyle;rounded=0;orthogonalLoop=1;jettySize=auto;html=1;" edge="1" parent="pQh984amjkJI4nYFNe4P-45" source="pQh984amjkJI4nYFNe4P-65" target="pQh984amjkJI4nYFNe4P-66">
          <mxGeometry relative="1" as="geometry" />
        </mxCell>
        <mxCell id="pQh984amjkJI4nYFNe4P-65" value="Memilih Paket dan Tanggal" style="rounded=1;whiteSpace=wrap;html=1;fontSize=10;" vertex="1" parent="pQh984amjkJI4nYFNe4P-45">
          <mxGeometry x="80" y="80" width="80" height="40" as="geometry" />
        </mxCell>
        <mxCell id="pQh984amjkJI4nYFNe4P-54" value="Petugas" style="swimlane;html=1;startSize=20;" vertex="1" parent="1">
          <mxGeometry x="280" y="40" width="240" height="680" as="geometry" />
        </mxCell>
        <mxCell id="pQh984amjkJI4nYFNe4P-79" value="" style="edgeStyle=orthogonalEdgeStyle;rounded=0;orthogonalLoop=1;jettySize=auto;html=1;" edge="1" parent="pQh984amjkJI4nYFNe4P-54" source="pQh984amjkJI4nYFNe4P-68" target="pQh984amjkJI4nYFNe4P-70">
          <mxGeometry relative="1" as="geometry" />
        </mxCell>
        <mxCell id="pQh984amjkJI4nYFNe4P-68" value="Menerima Formulir" style="rounded=1;whiteSpace=wrap;html=1;fontSize=10;" vertex="1" parent="pQh984amjkJI4nYFNe4P-54">
          <mxGeometry x="80" y="200" width="80" height="40" as="geometry" />
        </mxCell>
        <mxCell id="pQh984amjkJI4nYFNe4P-80" value="" style="edgeStyle=orthogonalEdgeStyle;rounded=0;orthogonalLoop=1;jettySize=auto;html=1;" edge="1" parent="pQh984amjkJI4nYFNe4P-54" source="pQh984amjkJI4nYFNe4P-70" target="pQh984amjkJI4nYFNe4P-71">
          <mxGeometry relative="1" as="geometry" />
        </mxCell>
        <mxCell id="pQh984amjkJI4nYFNe4P-70" value="Memeriksa Ketersediaan" style="rounded=1;whiteSpace=wrap;html=1;fontSize=10;" vertex="1" parent="pQh984amjkJI4nYFNe4P-54">
          <mxGeometry x="80" y="280" width="80" height="40" as="geometry" />
        </mxCell>
        <mxCell id="pQh984amjkJI4nYFNe4P-71" value="Tersedia?" style="rhombus;whiteSpace=wrap;html=1;" vertex="1" parent="pQh984amjkJI4nYFNe4P-54">
          <mxGeometry x="80" y="360" width="80" height="80" as="geometry" />
        </mxCell>
        <mxCell id="pQh984amjkJI4nYFNe4P-83" value="" style="edgeStyle=orthogonalEdgeStyle;rounded=0;orthogonalLoop=1;jettySize=auto;html=1;" edge="1" parent="pQh984amjkJI4nYFNe4P-54" source="pQh984amjkJI4nYFNe4P-73" target="pQh984amjkJI4nYFNe4P-74">
          <mxGeometry relative="1" as="geometry" />
        </mxCell>
        <mxCell id="pQh984amjkJI4nYFNe4P-73" value="Konfirmasi Pembayaran" style="rounded=1;whiteSpace=wrap;html=1;fontSize=10;" vertex="1" parent="pQh984amjkJI4nYFNe4P-54">
          <mxGeometry x="80" y="480" width="80" height="40" as="geometry" />
        </mxCell>
        <mxCell id="pQh984amjkJI4nYFNe4P-91" style="edgeStyle=orthogonalEdgeStyle;rounded=0;orthogonalLoop=1;jettySize=auto;html=1;entryX=1;entryY=0.5;entryDx=0;entryDy=0;" edge="1" parent="pQh984amjkJI4nYFNe4P-54" source="pQh984amjkJI4nYFNe4P-74" target="pQh984amjkJI4nYFNe4P-73">
          <mxGeometry relative="1" as="geometry">
            <Array as="points">
              <mxPoint x="200" y="600" />
              <mxPoint x="200" y="500" />
            </Array>
          </mxGeometry>
        </mxCell>
        <mxCell id="pQh984amjkJI4nYFNe4P-92" value="N" style="edgeLabel;html=1;align=center;verticalAlign=middle;resizable=0;points=[];" vertex="1" connectable="0" parent="pQh984amjkJI4nYFNe4P-91">
          <mxGeometry x="-0.1222" y="-1" relative="1" as="geometry">
            <mxPoint x="-2" as="offset" />
          </mxGeometry>
        </mxCell>
        <mxCell id="pQh984amjkJI4nYFNe4P-74" value="Berhasil?" style="rhombus;whiteSpace=wrap;html=1;" vertex="1" parent="pQh984amjkJI4nYFNe4P-54">
          <mxGeometry x="80" y="560" width="80" height="80" as="geometry" />
        </mxCell>
        <mxCell id="pQh984amjkJI4nYFNe4P-78" style="edgeStyle=orthogonalEdgeStyle;rounded=0;orthogonalLoop=1;jettySize=auto;html=1;entryX=0;entryY=0.5;entryDx=0;entryDy=0;" edge="1" parent="1" source="pQh984amjkJI4nYFNe4P-66" target="pQh984amjkJI4nYFNe4P-68">
          <mxGeometry relative="1" as="geometry">
            <Array as="points">
              <mxPoint x="160" y="260" />
            </Array>
          </mxGeometry>
        </mxCell>
        <mxCell id="pQh984amjkJI4nYFNe4P-81" style="edgeStyle=orthogonalEdgeStyle;rounded=0;orthogonalLoop=1;jettySize=auto;html=1;entryX=1;entryY=0.5;entryDx=0;entryDy=0;" edge="1" parent="1" source="pQh984amjkJI4nYFNe4P-71" target="pQh984amjkJI4nYFNe4P-72">
          <mxGeometry relative="1" as="geometry" />
        </mxCell>
        <mxCell id="pQh984amjkJI4nYFNe4P-89" value="Y" style="edgeLabel;html=1;align=center;verticalAlign=middle;resizable=0;points=[];" vertex="1" connectable="0" parent="pQh984amjkJI4nYFNe4P-81">
          <mxGeometry x="-0.55" relative="1" as="geometry">
            <mxPoint x="-5" as="offset" />
          </mxGeometry>
        </mxCell>
        <mxCell id="pQh984amjkJI4nYFNe4P-82" style="edgeStyle=orthogonalEdgeStyle;rounded=0;orthogonalLoop=1;jettySize=auto;html=1;entryX=0;entryY=0.5;entryDx=0;entryDy=0;" edge="1" parent="1" source="pQh984amjkJI4nYFNe4P-72" target="pQh984amjkJI4nYFNe4P-73">
          <mxGeometry relative="1" as="geometry">
            <Array as="points">
              <mxPoint x="160" y="540" />
            </Array>
          </mxGeometry>
        </mxCell>
        <mxCell id="pQh984amjkJI4nYFNe4P-84" style="edgeStyle=orthogonalEdgeStyle;rounded=0;orthogonalLoop=1;jettySize=auto;html=1;entryX=1;entryY=0.5;entryDx=0;entryDy=0;" edge="1" parent="1" source="pQh984amjkJI4nYFNe4P-74" target="pQh984amjkJI4nYFNe4P-75">
          <mxGeometry relative="1" as="geometry" />
        </mxCell>
        <mxCell id="pQh984amjkJI4nYFNe4P-93" value="Y" style="edgeLabel;html=1;align=center;verticalAlign=middle;resizable=0;points=[];" vertex="1" connectable="0" parent="pQh984amjkJI4nYFNe4P-84">
          <mxGeometry x="-0.5" y="-1" relative="1" as="geometry">
            <mxPoint as="offset" />
          </mxGeometry>
        </mxCell>
        <mxCell id="pQh984amjkJI4nYFNe4P-88" style="edgeStyle=orthogonalEdgeStyle;rounded=0;orthogonalLoop=1;jettySize=auto;html=1;entryX=1;entryY=0.5;entryDx=0;entryDy=0;" edge="1" parent="1" source="pQh984amjkJI4nYFNe4P-71" target="pQh984amjkJI4nYFNe4P-65">
          <mxGeometry relative="1" as="geometry">
            <Array as="points">
              <mxPoint x="480" y="440" />
              <mxPoint x="480" y="140" />
            </Array>
          </mxGeometry>
        </mxCell>
        <mxCell id="pQh984amjkJI4nYFNe4P-90" value="N" style="edgeLabel;html=1;align=center;verticalAlign=middle;resizable=0;points=[];" vertex="1" connectable="0" parent="pQh984amjkJI4nYFNe4P-88">
          <mxGeometry x="-0.4129" y="-2" relative="1" as="geometry">
            <mxPoint x="-3" as="offset" />
          </mxGeometry>
        </mxCell>
      </root>
    </mxGraphModel>
  </diagram>
  <diagram id="MjwiOhjLP03YVOyMl6Ty" name="Rekomendasi">
    <mxGraphModel dx="1060" dy="561" grid="1" gridSize="10" guides="1" tooltips="1" connect="1" arrows="1" fold="1" page="1" pageScale="1" pageWidth="850" pageHeight="1100" math="0" shadow="0">
      <root>
        <mxCell id="0" />
        <mxCell id="1" parent="0" />
        <mxCell id="2FWG7DzHUaF349T8xaMi-1" value="Pengguna" style="swimlane;html=1;startSize=20;" vertex="1" parent="1">
          <mxGeometry x="40" y="40" width="240" height="760" as="geometry" />
        </mxCell>
        <mxCell id="2FWG7DzHUaF349T8xaMi-2" value="" style="ellipse;html=1;shape=startState;fillColor=#000000;strokeColor=#000000;" vertex="1" parent="2FWG7DzHUaF349T8xaMi-1">
          <mxGeometry x="105" y="30" width="30" height="30" as="geometry" />
        </mxCell>
        <mxCell id="2FWG7DzHUaF349T8xaMi-25" value="" style="edgeStyle=orthogonalEdgeStyle;rounded=0;orthogonalLoop=1;jettySize=auto;html=1;" edge="1" parent="2FWG7DzHUaF349T8xaMi-1" source="2FWG7DzHUaF349T8xaMi-3" target="2FWG7DzHUaF349T8xaMi-22">
          <mxGeometry relative="1" as="geometry" />
        </mxCell>
        <mxCell id="2FWG7DzHUaF349T8xaMi-3" value="Pilih Paket" style="rounded=1;whiteSpace=wrap;html=1;fontSize=10;" vertex="1" parent="2FWG7DzHUaF349T8xaMi-1">
          <mxGeometry x="80" y="160" width="80" height="40" as="geometry" />
        </mxCell>
        <mxCell id="2FWG7DzHUaF349T8xaMi-34" style="edgeStyle=orthogonalEdgeStyle;rounded=0;orthogonalLoop=1;jettySize=auto;html=1;exitX=0.5;exitY=1;exitDx=0;exitDy=0;entryX=0.5;entryY=0;entryDx=0;entryDy=0;" edge="1" parent="2FWG7DzHUaF349T8xaMi-1" source="2FWG7DzHUaF349T8xaMi-4" target="2FWG7DzHUaF349T8xaMi-30">
          <mxGeometry relative="1" as="geometry" />
        </mxCell>
        <mxCell id="2FWG7DzHUaF349T8xaMi-4" value="Pembayaran Melalui Payment Gateway" style="rounded=1;whiteSpace=wrap;html=1;fontSize=10;" vertex="1" parent="2FWG7DzHUaF349T8xaMi-1">
          <mxGeometry x="80" y="320" width="80" height="40" as="geometry" />
        </mxCell>
        <mxCell id="2FWG7DzHUaF349T8xaMi-5" style="edgeStyle=orthogonalEdgeStyle;rounded=0;orthogonalLoop=1;jettySize=auto;html=1;exitX=0.5;exitY=1;exitDx=0;exitDy=0;entryX=0.5;entryY=0;entryDx=0;entryDy=0;" edge="1" parent="2FWG7DzHUaF349T8xaMi-1" source="2FWG7DzHUaF349T8xaMi-6" target="2FWG7DzHUaF349T8xaMi-7">
          <mxGeometry relative="1" as="geometry" />
        </mxCell>
        <mxCell id="2FWG7DzHUaF349T8xaMi-6" value="Menerima Bukti Transaksi" style="rounded=1;whiteSpace=wrap;html=1;fontSize=10;" vertex="1" parent="2FWG7DzHUaF349T8xaMi-1">
          <mxGeometry x="80" y="640" width="80" height="40" as="geometry" />
        </mxCell>
        <mxCell id="2FWG7DzHUaF349T8xaMi-7" value="" style="ellipse;html=1;shape=endState;fillColor=#000000;strokeColor=#000000;" vertex="1" parent="2FWG7DzHUaF349T8xaMi-1">
          <mxGeometry x="105" y="710" width="30" height="30" as="geometry" />
        </mxCell>
        <mxCell id="2FWG7DzHUaF349T8xaMi-8" value="" style="edgeStyle=orthogonalEdgeStyle;html=1;verticalAlign=bottom;endArrow=classic;endSize=8;strokeColor=#000000;rounded=0;endFill=1;" edge="1" parent="2FWG7DzHUaF349T8xaMi-1" source="2FWG7DzHUaF349T8xaMi-2" target="2FWG7DzHUaF349T8xaMi-10">
          <mxGeometry relative="1" as="geometry">
            <mxPoint x="160" y="160" as="targetPoint" />
            <mxPoint x="160" y="100" as="sourcePoint" />
          </mxGeometry>
        </mxCell>
        <mxCell id="2FWG7DzHUaF349T8xaMi-10" value="Login" style="rounded=1;whiteSpace=wrap;html=1;fontSize=10;" vertex="1" parent="2FWG7DzHUaF349T8xaMi-1">
          <mxGeometry x="80" y="80" width="80" height="40" as="geometry" />
        </mxCell>
        <mxCell id="2FWG7DzHUaF349T8xaMi-22" value="Mengisi Data Pemesanan" style="rounded=1;whiteSpace=wrap;html=1;fontSize=10;" vertex="1" parent="2FWG7DzHUaF349T8xaMi-1">
          <mxGeometry x="80" y="220" width="80" height="40" as="geometry" />
        </mxCell>
        <mxCell id="2FWG7DzHUaF349T8xaMi-35" style="edgeStyle=orthogonalEdgeStyle;rounded=0;orthogonalLoop=1;jettySize=auto;html=1;exitX=0.5;exitY=1;exitDx=0;exitDy=0;entryX=0.5;entryY=0;entryDx=0;entryDy=0;" edge="1" parent="2FWG7DzHUaF349T8xaMi-1" source="2FWG7DzHUaF349T8xaMi-30" target="2FWG7DzHUaF349T8xaMi-31">
          <mxGeometry relative="1" as="geometry" />
        </mxCell>
        <mxCell id="2FWG7DzHUaF349T8xaMi-30" value="Pilih Metode Pembayaran" style="rounded=1;whiteSpace=wrap;html=1;fontSize=10;" vertex="1" parent="2FWG7DzHUaF349T8xaMi-1">
          <mxGeometry x="80" y="380" width="80" height="40" as="geometry" />
        </mxCell>
        <mxCell id="2FWG7DzHUaF349T8xaMi-31" value="Mengisi Informasi Pembayaran" style="rounded=1;whiteSpace=wrap;html=1;fontSize=10;" vertex="1" parent="2FWG7DzHUaF349T8xaMi-1">
          <mxGeometry x="80" y="440" width="80" height="40" as="geometry" />
        </mxCell>
        <mxCell id="2FWG7DzHUaF349T8xaMi-43" style="edgeStyle=orthogonalEdgeStyle;rounded=0;orthogonalLoop=1;jettySize=auto;html=1;exitX=0.5;exitY=1;exitDx=0;exitDy=0;entryX=0.5;entryY=0;entryDx=0;entryDy=0;" edge="1" parent="2FWG7DzHUaF349T8xaMi-1" source="2FWG7DzHUaF349T8xaMi-41" target="2FWG7DzHUaF349T8xaMi-6">
          <mxGeometry relative="1" as="geometry" />
        </mxCell>
        <mxCell id="2FWG7DzHUaF349T8xaMi-41" value="Melihat Histori Pesanan" style="rounded=1;whiteSpace=wrap;html=1;fontSize=10;" vertex="1" parent="2FWG7DzHUaF349T8xaMi-1">
          <mxGeometry x="80" y="580" width="80" height="40" as="geometry" />
        </mxCell>
        <mxCell id="2FWG7DzHUaF349T8xaMi-11" value="Sistem" style="swimlane;html=1;startSize=20;" vertex="1" parent="1">
          <mxGeometry x="280" y="40" width="240" height="760" as="geometry" />
        </mxCell>
        <mxCell id="2FWG7DzHUaF349T8xaMi-13" value="Tampil Halaman Utama" style="rounded=1;whiteSpace=wrap;html=1;fontSize=10;" vertex="1" parent="2FWG7DzHUaF349T8xaMi-11">
          <mxGeometry x="80" y="80" width="80" height="40" as="geometry" />
        </mxCell>
        <mxCell id="2FWG7DzHUaF349T8xaMi-27" value="" style="edgeStyle=orthogonalEdgeStyle;rounded=0;orthogonalLoop=1;jettySize=auto;html=1;" edge="1" parent="2FWG7DzHUaF349T8xaMi-11" source="2FWG7DzHUaF349T8xaMi-15" target="2FWG7DzHUaF349T8xaMi-16">
          <mxGeometry relative="1" as="geometry" />
        </mxCell>
        <mxCell id="2FWG7DzHUaF349T8xaMi-15" value="Memeriksa Ketersediaan" style="rounded=1;whiteSpace=wrap;html=1;fontSize=10;" vertex="1" parent="2FWG7DzHUaF349T8xaMi-11">
          <mxGeometry x="80" y="220" width="80" height="40" as="geometry" />
        </mxCell>
        <mxCell id="2FWG7DzHUaF349T8xaMi-16" value="Tersedia?" style="rhombus;whiteSpace=wrap;html=1;" vertex="1" parent="2FWG7DzHUaF349T8xaMi-11">
          <mxGeometry x="80" y="300" width="80" height="80" as="geometry" />
        </mxCell>
        <mxCell id="2FWG7DzHUaF349T8xaMi-39" style="edgeStyle=orthogonalEdgeStyle;rounded=0;orthogonalLoop=1;jettySize=auto;html=1;exitX=0.5;exitY=1;exitDx=0;exitDy=0;entryX=0.5;entryY=0;entryDx=0;entryDy=0;" edge="1" parent="2FWG7DzHUaF349T8xaMi-11" source="2FWG7DzHUaF349T8xaMi-18" target="2FWG7DzHUaF349T8xaMi-37">
          <mxGeometry relative="1" as="geometry" />
        </mxCell>
        <mxCell id="2FWG7DzHUaF349T8xaMi-18" value="Payment Gateway Memproses" style="rounded=1;whiteSpace=wrap;html=1;fontSize=10;" vertex="1" parent="2FWG7DzHUaF349T8xaMi-11">
          <mxGeometry x="80" y="440" width="80" height="40" as="geometry" />
        </mxCell>
        <mxCell id="2FWG7DzHUaF349T8xaMi-21" value="Berhasil?" style="rhombus;whiteSpace=wrap;html=1;" vertex="1" parent="2FWG7DzHUaF349T8xaMi-11">
          <mxGeometry x="80" y="560" width="80" height="80" as="geometry" />
        </mxCell>
        <mxCell id="2FWG7DzHUaF349T8xaMi-40" style="edgeStyle=orthogonalEdgeStyle;rounded=0;orthogonalLoop=1;jettySize=auto;html=1;exitX=0.5;exitY=1;exitDx=0;exitDy=0;entryX=0.5;entryY=0;entryDx=0;entryDy=0;" edge="1" parent="2FWG7DzHUaF349T8xaMi-11" source="2FWG7DzHUaF349T8xaMi-37" target="2FWG7DzHUaF349T8xaMi-21">
          <mxGeometry relative="1" as="geometry" />
        </mxCell>
        <mxCell id="2FWG7DzHUaF349T8xaMi-37" value="Konfirmasi Pembayaran" style="rounded=1;whiteSpace=wrap;html=1;fontSize=10;" vertex="1" parent="2FWG7DzHUaF349T8xaMi-11">
          <mxGeometry x="80" y="500" width="80" height="40" as="geometry" />
        </mxCell>
        <mxCell id="2FWG7DzHUaF349T8xaMi-45" style="edgeStyle=orthogonalEdgeStyle;rounded=0;orthogonalLoop=1;jettySize=auto;html=1;entryX=1;entryY=0.5;entryDx=0;entryDy=0;" edge="1" parent="2FWG7DzHUaF349T8xaMi-11">
          <mxGeometry relative="1" as="geometry">
            <mxPoint x="80" y="599.5" as="sourcePoint" />
            <mxPoint x="-80" y="599.5" as="targetPoint" />
          </mxGeometry>
        </mxCell>
        <mxCell id="2FWG7DzHUaF349T8xaMi-46" value="Y" style="edgeLabel;html=1;align=center;verticalAlign=middle;resizable=0;points=[];" vertex="1" connectable="0" parent="2FWG7DzHUaF349T8xaMi-45">
          <mxGeometry x="-0.525" y="2" relative="1" as="geometry">
            <mxPoint x="-2" y="-2" as="offset" />
          </mxGeometry>
        </mxCell>
        <mxCell id="2FWG7DzHUaF349T8xaMi-23" style="edgeStyle=orthogonalEdgeStyle;rounded=0;orthogonalLoop=1;jettySize=auto;html=1;entryX=0;entryY=0.5;entryDx=0;entryDy=0;" edge="1" parent="1" source="2FWG7DzHUaF349T8xaMi-10" target="2FWG7DzHUaF349T8xaMi-13">
          <mxGeometry relative="1" as="geometry" />
        </mxCell>
        <mxCell id="2FWG7DzHUaF349T8xaMi-24" style="edgeStyle=orthogonalEdgeStyle;rounded=0;orthogonalLoop=1;jettySize=auto;html=1;entryX=0.5;entryY=0;entryDx=0;entryDy=0;" edge="1" parent="1" source="2FWG7DzHUaF349T8xaMi-13" target="2FWG7DzHUaF349T8xaMi-3">
          <mxGeometry relative="1" as="geometry">
            <Array as="points">
              <mxPoint x="400" y="180" />
              <mxPoint x="160" y="180" />
            </Array>
          </mxGeometry>
        </mxCell>
        <mxCell id="2FWG7DzHUaF349T8xaMi-26" style="edgeStyle=orthogonalEdgeStyle;rounded=0;orthogonalLoop=1;jettySize=auto;html=1;entryX=0;entryY=0.5;entryDx=0;entryDy=0;" edge="1" parent="1" source="2FWG7DzHUaF349T8xaMi-22" target="2FWG7DzHUaF349T8xaMi-15">
          <mxGeometry relative="1" as="geometry" />
        </mxCell>
        <mxCell id="2FWG7DzHUaF349T8xaMi-28" style="edgeStyle=orthogonalEdgeStyle;rounded=0;orthogonalLoop=1;jettySize=auto;html=1;entryX=1;entryY=0.5;entryDx=0;entryDy=0;exitX=1;exitY=0.5;exitDx=0;exitDy=0;" edge="1" parent="1" source="2FWG7DzHUaF349T8xaMi-16" target="2FWG7DzHUaF349T8xaMi-3">
          <mxGeometry relative="1" as="geometry">
            <Array as="points">
              <mxPoint x="480" y="380" />
              <mxPoint x="480" y="220" />
            </Array>
            <mxPoint x="440" y="400" as="sourcePoint" />
            <mxPoint x="440" y="300" as="targetPoint" />
          </mxGeometry>
        </mxCell>
        <mxCell id="2FWG7DzHUaF349T8xaMi-29" value="N" style="edgeLabel;html=1;align=center;verticalAlign=middle;resizable=0;points=[];" vertex="1" connectable="0" parent="2FWG7DzHUaF349T8xaMi-28">
          <mxGeometry x="-0.1222" y="-1" relative="1" as="geometry">
            <mxPoint x="9" y="140" as="offset" />
          </mxGeometry>
        </mxCell>
        <mxCell id="2FWG7DzHUaF349T8xaMi-33" style="edgeStyle=orthogonalEdgeStyle;rounded=0;orthogonalLoop=1;jettySize=auto;html=1;entryX=1;entryY=0.5;entryDx=0;entryDy=0;" edge="1" parent="1" source="2FWG7DzHUaF349T8xaMi-16" target="2FWG7DzHUaF349T8xaMi-4">
          <mxGeometry relative="1" as="geometry" />
        </mxCell>
        <mxCell id="2FWG7DzHUaF349T8xaMi-36" value="Y" style="edgeLabel;html=1;align=center;verticalAlign=middle;resizable=0;points=[];" vertex="1" connectable="0" parent="2FWG7DzHUaF349T8xaMi-33">
          <mxGeometry x="-0.525" y="2" relative="1" as="geometry">
            <mxPoint x="-2" y="-2" as="offset" />
          </mxGeometry>
        </mxCell>
        <mxCell id="2FWG7DzHUaF349T8xaMi-19" style="edgeStyle=orthogonalEdgeStyle;rounded=0;orthogonalLoop=1;jettySize=auto;html=1;entryX=1;entryY=0.5;entryDx=0;entryDy=0;" edge="1" parent="1" source="2FWG7DzHUaF349T8xaMi-21" target="2FWG7DzHUaF349T8xaMi-30">
          <mxGeometry relative="1" as="geometry">
            <Array as="points">
              <mxPoint x="480" y="640" />
              <mxPoint x="480" y="440" />
            </Array>
          </mxGeometry>
        </mxCell>
        <mxCell id="2FWG7DzHUaF349T8xaMi-20" value="N" style="edgeLabel;html=1;align=center;verticalAlign=middle;resizable=0;points=[];" vertex="1" connectable="0" parent="2FWG7DzHUaF349T8xaMi-19">
          <mxGeometry x="-0.1222" y="-1" relative="1" as="geometry">
            <mxPoint x="-2" y="148" as="offset" />
          </mxGeometry>
        </mxCell>
        <mxCell id="2FWG7DzHUaF349T8xaMi-38" style="edgeStyle=orthogonalEdgeStyle;rounded=0;orthogonalLoop=1;jettySize=auto;html=1;entryX=0;entryY=0.5;entryDx=0;entryDy=0;" edge="1" parent="1" source="2FWG7DzHUaF349T8xaMi-31" target="2FWG7DzHUaF349T8xaMi-18">
          <mxGeometry relative="1" as="geometry" />
        </mxCell>
      </root>
    </mxGraphModel>
  </diagram>
</mxfile>
